<?xml version="1.0" encoding="utf-8"?>
<!-- Generator: Adobe Illustrator 22.1.0, SVG Export Plug-In . SVG Version: 6.00 Build 0)  -->
<svg version="1.1" id="Capa_1" xmlns="http://www.w3.org/2000/svg" xmlns:xlink="http://www.w3.org/1999/xlink" x="0px" y="0px"
	 viewBox="0 0 100 100" style="enable-background:new 0 0 100 100;" xml:space="preserve">
<style type="text/css">
	.st0{fill:#FFFFFF;}
</style>
<path class="st0" d="M27.2,2.5L27.2,2.5c3.4-3.4,8.9-3.4,12.3,0l41.4,41.4c3.4,3.4,3.4,8.9,0,12.3l0,0c-3.4,3.4-8.9,3.4-12.3,0
	L27.2,14.8C23.8,11.4,23.8,5.9,27.2,2.5z"/>
<path class="st0" d="M80.8,43.9L80.8,43.9c3.4,3.4,3.4,8.9,0,12.3L39.4,97.5c-3.4,3.4-8.9,3.4-12.3,0l0,0c-3.4-3.4-3.4-8.9,0-12.3
	l41.4-41.4C71.9,40.5,77.4,40.5,80.8,43.9z"/>
</svg>
