<?xml version="1.0" encoding="utf-8"?>
<!-- Generator: Adobe Illustrator 22.1.0, SVG Export Plug-In . SVG Version: 6.00 Build 0)  -->
<svg version="1.1" id="Capa_1" xmlns="http://www.w3.org/2000/svg" xmlns:xlink="http://www.w3.org/1999/xlink" x="0px" y="0px"
	 viewBox="0 0 100 100" style="enable-background:new 0 0 100 100;" xml:space="preserve">
<style type="text/css">
	.st0{fill:#FFFFFF;}
</style>
<path class="st0" d="M42.5,85.5v-71c0-4.1,3.4-7.5,7.5-7.5l0,0c4.1,0,7.5,3.4,7.5,7.5v71c0,4.1-3.4,7.5-7.5,7.5l0,0
	C45.9,93,42.5,89.6,42.5,85.5z"/>
<path class="st0" d="M44.7,80.2l29.8-29.8c3-2.9,7.7-2.9,10.7,0l0,0c2.9,2.9,2.9,7.6,0,10.6L55.3,90.7c-2.9,2.9-7.6,2.9-10.6,0l0,0
	C41.7,87.8,41.7,83.1,44.7,80.2z"/>
<path class="st0" d="M44.7,90.7L14.8,60.9c-2.9-2.9-2.9-7.6,0-10.6l0,0c2.9-2.9,7.6-2.9,10.6,0l29.8,29.8c2.9,2.9,2.9,7.6,0,10.6
	l0,0C52.4,93.8,47.6,93.8,44.7,90.7z"/>
</svg>
