<?xml version="1.0" encoding="utf-8"?>
<!-- Generator: Adobe Illustrator 22.1.0, SVG Export Plug-In . SVG Version: 6.00 Build 0)  -->
<svg version="1.1" xmlns="http://www.w3.org/2000/svg" xmlns:xlink="http://www.w3.org/1999/xlink" x="0px" y="0px"
	 viewBox="0 0 200 200" style="enable-background:new 0 0 200 200;" xml:space="preserve">
<style type="text/css">
	.st0{display:none;fill:#07FF00;}
	.st1{display:none;fill:#FFFF00;}
	.st2{fill:#1E1E1E;}
	.st3{fill:#FFFFFF;}
</style>
<g id="Capa_2_1_">
	<polygon class="st0" points="19,151 72.2,85.3 106.7,125.3 157.2,57.3 181,89.7 181,151 	"/>
	<circle class="st1" cx="50.7" cy="49" r="23.7"/>
	<path class="st2" d="M177.7,200H22.3C10,200,0,190,0,177.7V22.3C0,10,10,0,22.3,0h155.3C190,0,200,10,200,22.3v155.3
		C200,190,190,200,177.7,200z"/>
</g>
<g id="Capa_3">
	<path class="st3" d="M164,66.3V123c0,9.9-8,18-18,18H54c-9.9,0-18-8-18-18V66.3l18-28h92L164,66.3z"/>
	<polygon class="st2" points="138.4,46.5 61.5,46.5 55.3,58.2 144.9,58.2 	"/>
	<polygon class="st2" points="127.8,89.7 100.1,122.8 72.3,89.7 88.5,89.7 88.5,75.4 111.5,75.4 111.5,89.7 	"/>
	<g>
		<path class="st3" d="M78,160.1H67.5v5.7H77v7.2h-9.5v13.2h-8.7v-33.3H78V160.1z"/>
		<path class="st3" d="M91.8,186.1h-8.7v-33.3h8.7V186.1z"/>
		<path class="st3" d="M117.9,186.1H98.8v-33.3h8.7v26.1h10.4V186.1z"/>
		<path class="st3" d="M141.3,186.1h-19v-33.3h19v7.2H131v5.7h9.7v7.2H131v6h10.3V186.1z"/>
	</g>
</g>
</svg>
