<?xml version="1.0" encoding="utf-8"?>
<!-- Generator: Adobe Illustrator 22.1.0, SVG Export Plug-In . SVG Version: 6.00 Build 0)  -->
<svg version="1.1" id="Capa_2" xmlns="http://www.w3.org/2000/svg" xmlns:xlink="http://www.w3.org/1999/xlink" x="0px" y="0px"
	 viewBox="0 0 200 200" style="enable-background:new 0 0 200 200;" xml:space="preserve">
<style type="text/css">
	.st0{fill:#FFFAEE;}
	.st1{fill:#F4EBD9;}
	.st2{fill:#46AF89;}
	.st3{fill:#A7F2D2;}
	.st4{fill:#FFFF00;}
	.st5{fill:#FFFFFF;}
	.st6{display:none;fill:#07FF00;}
	.st7{display:none;fill:#FFFF00;}
</style>
<g id="Capa_3_copia">
	<path class="st0" d="M172,46.5v142.7c0,6-4.8,10.8-10.8,10.8H38.8c-6,0-10.8-4.8-10.8-10.8V10.8C28,4.8,32.8,0,38.8,0h86.7
		c1.6,0,3.1,0.3,4.5,1c1.2,0.5,2.2,1.3,3.2,2.2l35.7,35.7c0.9,0.9,1.7,2,2.2,3.2C171.7,43.4,172,44.9,172,46.5z"/>
	<path class="st1" d="M171,42h-41V1c1.2,0.5,2.2,1.3,3.2,2.2l35.7,35.7C169.8,39.8,170.5,40.8,171,42z"/>
	<path class="st2" d="M172,148.7v40.5c0,6-4.8,10.8-10.8,10.8H38.8c-6,0-10.8-4.8-10.8-10.8v-40.5H172z"/>
	<polygon class="st3" points="28,148.7 77.3,74.3 100,104.5 141.3,49.5 172,96.5 172,148.7 	"/>
	<circle class="st4" cx="61.5" cy="41.3" r="18.2"/>
	<g>
		<path class="st5" d="M72.1,182.2c0,1.5-0.1,2.7-0.3,3.7c-0.4,2-1.5,3.8-3.2,5.5c-2.3,2.1-5.1,3.2-8.5,3.2c-3.9,0-7.1-1.8-9.6-5.4
			l6.2-6.4c0.3,2.4,1.3,3.6,3.1,3.6c1.8,0,2.7-1.4,2.7-4.2l0-2v-23.2h9.5V182.2z"/>
		<path class="st5" d="M107.7,169c0,3.3-0.8,6-2.3,8.2c-2,2.8-5.4,4.2-10.1,4.2h-6v12.2h-9.5v-36.7h15.2c4.3,0,7.6,1.3,9.8,3.8
			C106.7,162.8,107.7,165.6,107.7,169z M97.8,169.1c0-1.4-0.4-2.5-1.2-3.3c-0.8-0.8-2.2-1.2-4.1-1.2h-3.2v9.1h3.2
			c2.1,0,3.5-0.4,4.3-1.3C97.4,171.6,97.8,170.5,97.8,169.1z"/>
		<path class="st5" d="M149.5,173.2c0,4-0.4,7.2-1.3,9.7c-1.4,3.8-3.6,6.8-6.7,8.8c-3,2-6.6,3-10.7,3c-6.7,0-11.9-2.3-15.5-6.9
			c-2.7-3.5-4.1-7.6-4.1-12.4c0-5.3,1.6-9.8,4.8-13.5c3.6-4.1,8.7-6.2,15.1-6.2c4.3,0,8,1.1,11,3.3c2.1,1.6,4,3.9,5.5,7l-9,3.7
			c-0.8-1.7-1.7-3-2.7-3.8c-1.5-1.2-3.2-1.8-5.3-1.8c-4.1,0-7,2.1-8.7,6.4c-0.6,1.6-0.9,3.2-0.9,4.9c0,3.5,1.1,6.4,3.3,8.7
			c1.6,1.7,3.8,2.6,6.5,2.6c2.4,0,4.3-0.7,5.8-2.1c0.9-0.9,1.5-2.3,1.8-4.1h-7.8v-7.3H149.5z"/>
	</g>
</g>
<polygon class="st6" points="19,151 72.2,85.3 106.7,125.3 157.2,57.3 181,89.7 181,151 "/>
<circle class="st7" cx="50.7" cy="49" r="23.7"/>
</svg>
