<?xml version="1.0" encoding="utf-8"?>
<!-- Generator: Adobe Illustrator 22.0.1, SVG Export Plug-In . SVG Version: 6.00 Build 0)  -->
<svg version="1.1" id="Capa_1" xmlns="http://www.w3.org/2000/svg" xmlns:xlink="http://www.w3.org/1999/xlink" x="0px" y="0px"
	 viewBox="0 0 1200 1200" style="enable-background:new 0 0 1200 1200;" xml:space="preserve">
<style type="text/css">
	.st0{opacity:0.17;}
	.st1{display:none;}
	.st2{fill:#FFFFFF;}
	.st3{fill:#FF0000;}
	.st4{fill:#00FFFF;}
	.st5{fill:#7F7F7F;}
</style>
<g id="Layer_1" class="st0">
	<g id="Layer_2_1_">
		<rect x="-144" class="st1" width="1000" height="1000"/>
		<path d="M856,500c0,121.8-43.5,233.4-116,320.2c-11,13.2-22.7,25.9-35,37.9c-90.1,87.8-213.2,142-349,142
			C79.9,1000-144,776.1-144,500S79.9,0,356,0S856,223.9,856,500z"/>
	</g>
	<g id="Layer_1_1_">
		<path id="G_2_" class="st2" d="M148.7,499.9h301.8c0.2,0.1,0.5,0.4,0.5,0.7C450.7,636.8,341.4,747.5,205.6,750
			C64.5,752.5-51.5,636.5-49,495.4C-46.5,359.4,64.5,250,201,250c0.3,0,0.7,0,1,0l0,0h110.7c0.2,0,0.4,0.1,0.5,0.3l30.3,47.9
			c0.2,0.4,0,0.9-0.5,0.9H201.9c-110.5,0-200,89.7-200,200.4s89.5,200.4,200,200.4c93.1,0,171.4-63.8,193.7-150.2
			c0.1-0.4-0.2-0.7-0.5-0.7H117L148.7,499.9z"/>
		<path id="R" class="st3" d="M312.7,250H506c0.3,0,0.7,0,1,0c82.4,0.5,149,67.5,149,150c0,64-40.1,118.7-96.6,140.2l180.6,280
			c-11,13.2-22.7,25.9-35,37.9L474,500h32v-0.1c55.2,0,99.9-45,99.9-100.4C605.9,344,561.2,299,506,299H344L312.7,250z"/>
	</g>
</g>
<g id="Capa_3">
	<polygon class="st4" points="847.7,1079 864.5,1105 0,1105 0,1079 	"/>
	<polygon class="st5" points="1200,1079 1200,1105 924,1105 907.2,1079 	"/>
	<polygon class="st3" points="924,1105 864.5,1105 847.7,1079 907.2,1079 	"/>
</g>
</svg>
