<?xml version="1.0" encoding="utf-8"?>
<!-- Generator: Adobe Illustrator 22.0.1, SVG Export Plug-In . SVG Version: 6.00 Build 0)  -->
<svg version="1.1" id="Capa_1" xmlns="http://www.w3.org/2000/svg" xmlns:xlink="http://www.w3.org/1999/xlink" x="0px" y="0px"
	 viewBox="0 0 1000 1000" style="enable-background:new 0 0 1000 1000;" xml:space="preserve">
<style type="text/css">
	.st0{display:none;}
	.st1{fill:#FFFFFF;}
	.st2{fill:#FF0000;}
</style>
<g id="Layer_2">
	<rect class="st0" width="1000" height="1000"/>
	<path d="M1000,500c0,121.8-43.5,233.4-116,320.2c-11,13.2-22.7,25.9-35,37.9c-90.1,87.8-213.2,142-349,142
		C223.9,1000,0,776.1,0,500S223.9,0,500,0S1000,223.9,1000,500z"/>
</g>
<g id="Layer_1">
	<path id="G_2_" class="st1" d="M292.7,499.9h301.8c0.2,0.1,0.5,0.4,0.5,0.7C594.7,636.8,485.4,747.5,349.6,750
		C208.5,752.5,92.5,636.5,95,495.4C97.5,359.4,208.5,250,345,250c0.3,0,0.7,0,1,0l0,0h110.7c0.2,0,0.4,0.1,0.5,0.3l30.3,47.9
		c0.2,0.4,0,0.9-0.5,0.9H345.9c-110.5,0-200,89.7-200,200.4s89.5,200.4,200,200.4c93.1,0,171.4-63.8,193.7-150.2
		c0.1-0.4-0.2-0.7-0.5-0.7H261L292.7,499.9z"/>
	<path id="R" class="st2" d="M456.7,250H650c0.3,0,0.7,0,1,0c82.4,0.5,149,67.5,149,150c0,64-40.1,118.7-96.6,140.2l180.6,280
		c-11,13.2-22.7,25.9-35,37.9L618,500h32v-0.1c55.2,0,99.9-45,99.9-100.4C749.9,344,705.2,299,650,299H488L456.7,250z"/>
</g>
</svg>
