<?xml version="1.0" encoding="utf-8"?>
<!-- Generator: Adobe Illustrator 22.1.0, SVG Export Plug-In . SVG Version: 6.00 Build 0)  -->
<svg version="1.1" id="Capa_1" xmlns="http://www.w3.org/2000/svg" xmlns:xlink="http://www.w3.org/1999/xlink" x="0px" y="0px"
	 viewBox="0 0 200 200" style="enable-background:new 0 0 200 200;" xml:space="preserve">
<style type="text/css">
	.st0{fill:#FFFFFF;}
	.st1{fill:none;stroke:#FF0000;stroke-width:5;stroke-miterlimit:10;}
	.st2{fill:#FF0000;}
</style>
<g id="Capa_2_1_">
	<rect class="st0" width="200" height="200"/>
</g>
<g id="Capa_2">
	<path class="st1" d="M96.7,115.5c0,0,23.6-19.5,27.4-40.7c3.7-21.3-4.4-26.9-7.9,3.5c-3.6,30.4,8.9,50.8,31.4,55.6s16.7-8-9.6-12.8
		s-59.5,15.3-59.5,15.3L96.7,115.5z"/>
</g>
<polygon class="st2" points="106,179 21,166 21,34 106,21 "/>
<path class="st2" d="M179,47h-60V34h47.4c7,0,12.6,5.6,12.6,12.6V47z"/>
<path class="st2" d="M166.4,166H119v-13h60v0.4C179,160.4,173.4,166,166.4,166z"/>
<rect x="119.5" y="93.5" transform="matrix(-1.836970e-16 1 -1 -1.836970e-16 272.5 -72.5)" class="st2" width="106" height="13"/>
<g>
	<g>
		<path class="st0" d="M51.9,94.9c0,2.8-0.6,5-1.9,6.8c-1.7,2.3-4.4,3.3-8.3,3.2c-2-0.1-3-0.1-4.9-0.2c0,3.7,0,5.5,0,9.8
			c-3.2-0.2-4.7-0.3-7.9-0.6c0-12.8,0-14.7,0-27.5c5-0.3,7.5-0.5,12.5-0.9c3.5-0.3,6.3,0.7,8.1,2.7C51.1,89.8,51.9,92.1,51.9,94.9z
			 M43.3,95.9c0-0.9-0.3-1.7-0.9-2.2c-0.6-0.5-1.6-0.8-2.9-0.7c-0.9,0-1.4,0.1-2.3,0.1c0,2.5,0,3.7,0,6c0.9,0,1.4,0,2.3,0
			c1.5,0,2.5-0.3,3.1-0.9C43.1,97.6,43.3,96.9,43.3,95.9z"/>
		<path class="st0" d="M79.5,100.1c0,3.8-0.9,7.3-2.8,10.2c-1.9,2.9-4.3,4.7-7.2,5.6c-1.6,0.5-3.1,0.6-4.8,0.5
			c-4.6-0.3-7-0.5-11.6-0.9c-0.1-10.3-0.1-20.7-0.2-31c4.6-0.3,7-0.5,11.6-0.9c2.8-0.2,5.5,0.4,7.9,1.9c2.4,1.5,4.2,3.7,5.5,6.6
			C79,94.7,79.5,97.4,79.5,100.1z M71.4,100.1c0-2.4-0.6-4.5-1.8-6.2c-1.6-2.3-3.9-3.2-7-3.1c-0.7,0-1.1,0.1-1.8,0.1
			c0,7.3,0.1,11,0.1,18.3c0.7,0,1.1,0.1,1.8,0.1c3.1,0.2,5.4-0.8,6.9-3.1C70.8,104.6,71.4,102.5,71.4,100.1z"/>
		<path class="st0" d="M97.9,89c-3.8,0.2-5.7,0.3-9.4,0.5c0,2.5,0,3.8,0,6.4c3.4-0.1,5.1-0.1,8.6-0.2c0,3.5,0,5.3,0,8.8
			c-3.4-0.1-5.1-0.2-8.6-0.3c0,6.1,0,9.1,0,14.2c-3.1-0.3-4.7-0.4-7.8-0.6c-0.1-11.7-0.1-23.4-0.1-35.2c6.9-0.5,10.4-0.8,17.3-1.2
			C97.9,84.1,97.9,85.7,97.9,89z"/>
	</g>
</g>
</svg>
