<?xml version="1.0" encoding="utf-8"?>
<!-- Generator: Adobe Illustrator 22.1.0, SVG Export Plug-In . SVG Version: 6.00 Build 0)  -->
<svg version="1.1" id="Capa_1" xmlns="http://www.w3.org/2000/svg" xmlns:xlink="http://www.w3.org/1999/xlink" x="0px" y="0px"
	 viewBox="0 0 30 40" style="enable-background:new 0 0 30 40;" xml:space="preserve">
<style type="text/css">
	.st0{fill:#FFFFFF;}
	.st1{fill:#FF0000;}
</style>
<path class="st0" d="M15,0C6.7,0,0,6.7,0,15c0,13.2,15,25,15,25s15-11.6,15-25C30,6.7,23.3,0,15,0z M15,21c-3.3,0-6-2.7-6-6
	s2.7-6,6-6s6,2.7,6,6S18.3,21,15,21z"/>
<path class="st1" d="M15,1C7.3,1,1,7.3,1,15c0,12.2,14,23.6,14,23.6S29,27.2,29,15C29,7.3,22.7,1,15,1z M15,22c-3.9,0-7-3.1-7-7
	s3.1-7,7-7s7,3.1,7,7S18.9,22,15,22z"/>
</svg>
